<?xml version="1.0" encoding="utf-8"?>
<!-- Generator: Adobe Illustrator 24.1.2, SVG Export Plug-In . SVG Version: 6.00 Build 0)  -->
<svg version="1.1" id="Layer_1" xmlns="http://www.w3.org/2000/svg" xmlns:xlink="http://www.w3.org/1999/xlink" x="0px" y="0px"
	 viewBox="0 0 326 88" style="enable-background:new 0 0 326 88;" xml:space="preserve">
<style type="text/css">
	.st0{fill:#70A2D6;}
	.st1{font-family:'Arita-dotum-Medium_OTF-KSCpc-EUC-H';}
	.st2{font-size:57px;}
</style>
<g>
	<g>
		<text transform="matrix(1 0 0 1 4.9999 53.2814)" class="st0 st1 st2">LANEISFREE</text>
	</g>
	<rect x="12.8" y="82" class="st0" width="143.6" height="1"/>
	<g>
		<path class="st0" d="M249.8,83.2c-4.5,0-8-3.5-8-8c0-4.4,3.6-8,8-8c1.9,0,3.9,0.7,5.4,2.1c0.1,0.1,0.1,0.1,0.1,0.2s0,0.2-0.1,0.2
			l-1.4,1.5c-0.1,0.1-0.1,0.1-0.2,0.1s-0.1,0-0.2-0.1c-1-0.9-2.2-1.3-3.5-1.3c-2.9,0-5.2,2.4-5.2,5.4c0,2.9,2.3,5.3,5.2,5.3
			c1.3,0,2.3-0.4,2.7-0.6h0.1v-2.1h-1.9c-0.2,0-0.3-0.1-0.3-0.3v-1.8c0-0.2,0.1-0.3,0.3-0.3h4.3c0.1,0,0.3,0.1,0.3,0.3v5.8
			c0,0.1,0,0.2-0.1,0.3C255.3,81.8,253,83.2,249.8,83.2z"/>
		<path class="st0" d="M259.2,83c-0.2,0-0.3-0.2-0.3-0.3v-15c0-0.1,0.1-0.3,0.3-0.3h2.1c0.2,0,0.3,0.1,0.3,0.3v12.8h5.9
			c0.2,0,0.3,0.2,0.3,0.3v1.9c0,0.1-0.1,0.3-0.3,0.3C267.5,83,259.2,83,259.2,83z"/>
		<path class="st0" d="M276.7,83.3c-4.5,0-8-3.5-8-8c0-4.4,3.6-8,8-8s8,3.6,8,8C284.7,79.8,281.2,83.3,276.7,83.3z M276.7,69.9
			c-2.9,0-5.3,2.4-5.3,5.4c0,2.9,2.4,5.3,5.3,5.3s5.3-2.4,5.3-5.3C282.1,72.3,279.7,69.9,276.7,69.9z"/>
		<path class="st0" d="M299.8,83.3c-0.2,0-0.2-0.1-0.3-0.2l-4.1-10.3h-0.3l-4,10.3c-0.1,0.1-0.1,0.2-0.3,0.2h-0.4
			c-0.1,0-0.3-0.1-0.3-0.2l-4.3-15.2c0-0.1,0-0.2,0-0.3c0-0.1,0.1-0.1,0.3-0.1h2.1c0.1,0,0.3,0.1,0.3,0.2l2.4,9.1h0.3l3.6-9.4
			c0-0.1,0.1-0.2,0.3-0.2h0.4c0.1,0,0.2,0.1,0.3,0.2l3.7,9.4h0.3l2.3-9.1c0-0.1,0.2-0.2,0.3-0.2h2.1c0.1,0,0.2,0,0.3,0.1
			c0.1,0.1,0.1,0.2,0,0.3L300.5,83c0,0.1-0.2,0.2-0.3,0.2h-0.4V83.3z"/>
		<path class="st0" d="M208.3,74.5h-1.2c-0.3,0-0.5-0.2-0.5-0.5v-0.9c0-0.3,0.2-0.5,0.5-0.5h1.2v-2.8c0-0.3,0.2-0.5,0.5-0.5h1.2
			c0.3,0,0.5,0.2,0.5,0.5v2.8h2.7c0.3,0,0.5,0.2,0.5,0.5V74c0,0.2-0.2,0.5-0.5,0.5h-2.7v5.4c0,0.9,0.3,1,0.8,1
			c0.6,0,1.2-0.3,1.6-0.5c0.3-0.2,0.5,0,0.6,0.2l0.4,1c0.1,0.3,0,0.4-0.2,0.6c-0.4,0.3-1.6,0.7-2.8,0.7c-2,0-2.6-1.2-2.6-3V74.5
			L208.3,74.5z"/>
		<path class="st0" d="M215.9,67.9c0-0.2,0.2-0.5,0.5-0.5h1.2c0.2,0,0.5,0.2,0.5,0.5v5.6c0.2-0.2,1.3-1.1,2.9-1.1
			c2.9,0,3.9,2,3.9,4.8v5.1c0,0.3-0.2,0.5-0.5,0.5h-1.2c-0.3,0-0.5-0.2-0.5-0.5v-5.1c0-1.7-0.7-2.7-2-2.7c-1.6,0-2.4,1-2.7,1.5v6.3
			c0,0.3-0.2,0.5-0.5,0.5h-1.2c-0.3,0-0.5-0.2-0.5-0.5L215.9,67.9L215.9,67.9z"/>
		<path class="st0" d="M231.8,72.4c2.6,0,4.6,2,4.6,4.6c0,0.2,0,0.5,0,0.7c0,0.3-0.2,0.4-0.5,0.4h-7c0,1.4,1.2,2.8,3,2.8
			c1.2,0,1.9-0.4,2.5-0.9c0.2-0.2,0.4-0.2,0.6,0l0.6,0.9c0.2,0.2,0.3,0.4,0,0.7c-0.7,0.6-2.1,1.2-3.7,1.2c-3.1,0-5.1-2.4-5.1-5.3
			C226.7,74.9,228.7,72.4,231.8,72.4z M234.2,76.6c0-1.2-1-2.3-2.5-2.3c-1.6,0-2.6,1-2.7,2.3H234.2z"/>
		<path class="st0" d="M154.8,83c-0.2,0-0.2-0.1-0.2-0.2V67.7c0-0.1,0.1-0.2,0.2-0.2h9.3c0.2,0,0.2,0.1,0.2,0.2v1.9
			c0,0.1-0.1,0.2-0.2,0.2h-6.9v4.7h5.8c0.1,0,0.2,0.1,0.2,0.2v1.9c0,0.1-0.1,0.2-0.2,0.2h-5.8v5.9c0,0.1-0.1,0.2-0.2,0.2L154.8,83
			L154.8,83z"/>
		<path class="st0" d="M167.5,83c-0.2,0-0.2-0.1-0.2-0.2V67.7c0-0.1,0.1-0.2,0.2-0.2h9.3c0.2,0,0.2,0.1,0.2,0.2v1.9
			c0,0.1-0.1,0.2-0.2,0.2h-7v4.1h5.8c0.1,0,0.2,0.1,0.2,0.2V76c0,0.2-0.1,0.2-0.2,0.2h-5.8v4.4h6.9c0.2,0,0.2,0.1,0.2,0.2v1.9
			c0,0.1-0.1,0.2-0.2,0.2L167.5,83L167.5,83z"/>
		<path class="st0" d="M180.6,83c-0.2,0-0.2-0.1-0.2-0.2V67.7c0-0.1,0.1-0.2,0.2-0.2h9.3c0.2,0,0.2,0.1,0.2,0.2v1.9
			c0,0.1-0.1,0.2-0.2,0.2H183v4.1h5.8c0.1,0,0.2,0.1,0.2,0.2V76c0,0.2-0.1,0.2-0.2,0.2H183v4.4h6.9c0.2,0,0.2,0.1,0.2,0.2v1.9
			c0,0.1-0.1,0.2-0.2,0.2L180.6,83L180.6,83z"/>
		<path class="st0" d="M193.7,83c-0.2,0-0.2-0.1-0.2-0.2V67.7c0-0.1,0.1-0.2,0.2-0.2h2.1c0.1,0,0.2,0.1,0.2,0.2v13h6
			c0.2,0,0.2,0.1,0.2,0.2v1.9c0,0.1-0.1,0.2-0.2,0.2L193.7,83L193.7,83z"/>
	</g>
</g>
</svg>
